<?xml version="1.0" encoding="UTF-8"?>
<svg id="Layer_1" data-name="Layer 1" xmlns="http://www.w3.org/2000/svg" viewBox="0 0 2061.27 638.83">
  <defs>
    <style>
      .cls-1 {
        fill: #4d4d4e;
        font-family: Oswald-SemiBold, Oswald;
        font-size: 200px;
        font-weight: 600;
      }

      .cls-1, .cls-2 {
        isolation: isolate;
      }

      .cls-3 {
        fill: #2cabe2;
        stroke-width: 0px;
      }
    </style>
  </defs>
  <g>
    <circle class="cls-3" cx="338.91" cy="320.69" r="37.56"/>
    <g>
      <path class="cls-3" d="m338.66,33.65c-38.5,0-69.71,26.82-69.71,59.92,0,3.68.38,7.28,1.13,10.77,1.79,13.21,4.86,29.66,9.51,40.08l6.45,14.44,16.32,32.18c1.82,3.57,6.75,11.09,9.06,14.38l26.46,38.15,25.97-36.78c2.37-3.29,8.5-12.33,10.35-15.9l16.69-32.18,6.59-14.44c4.89-10.7,8.08-27.36,9.9-40.62.36-2.56.66-4.99.91-7.22.05-.95.08-1.9.08-2.86,0-33.1-31.21-59.92-69.71-59.92Zm-.78,116.08h-.01s0-.14,0-.14h.01s0,.14,0,.14Z"/>
      <polygon class="cls-3" points="337.87 149.59 337.88 149.58 337.88 149.73 337.87 149.74 337.87 149.59"/>
      <path class="cls-3" d="m408.29,96.43c-.13,2.45-.44,4.86-.91,7.22.36-2.56.66-4.99.91-7.22Z"/>
    </g>
    <g>
      <path class="cls-3" d="m550.31,217.51c-.7.65-1.41,1.28-2.14,1.88-1.84,1.37-3.87,2.83-6.03,4.35-10.93,7.68-25.23,16.64-36.35,20.34l-15.06,5.01-34.93,9.71c-3.88,1.08-14.67,2.75-18.69,3.26l-44.62,6.05h-.01l9.9-45.37c.83-3.94,2.97-12.66,4.36-16.43l12.44-33.87,6.18-14.56c4.47-10.52,14.45-24,22.9-34.33,2.03-2.89,4.39-5.6,7.06-8.09,24.22-22.54,65.12-17.98,91.35,10.2,26.23,28.18,27.86,69.3,3.64,91.85Z"/>
      <path class="cls-3" d="m548.17,219.39c-1.92,1.61-3.94,3.05-6.03,4.35,2.16-1.52,4.19-2.98,6.03-4.35Z"/>
    </g>
    <g>
      <polygon class="cls-3" points="508 320.82 508.01 320.83 507.86 320.83 507.85 320.82 508 320.82"/>
      <path class="cls-3" d="m561.16,391.24c-2.43-.13-4.83-.43-7.17-.9,2.54.35,4.95.65,7.17.9Z"/>
      <path class="cls-3" d="m564.02,251.9c-3.67,0-7.26.38-10.75,1.12-13.22,1.8-29.68,4.86-40.1,9.52l-14.44,6.45-32.18,16.32c-3.57,1.82-11.09,6.75-14.38,9.06l-38.15,26.46,36.78,25.97c3.29,2.37,12.33,8.5,15.9,10.35l32.18,16.69,14.44,6.59c10.71,4.89,27.41,8.09,40.67,9.91,2.54.35,4.95.65,7.17.9.95.05,1.9.08,2.86.08,33.09,0,59.92-31.21,59.92-69.71s-26.83-69.71-59.92-69.71Zm-56.17,68.92h.16s-.15.01-.15.01h-.01Z"/>
    </g>
    <g>
      <path class="cls-3" d="m545.36,424.41c-2.68-2.34-5.54-4.36-8.54-6.07-11.17-7.4-25.74-16.05-36.73-19.43l-15.11-4.65-34.97-8.91c-3.89-.99-12.79-2.22-16.79-2.65l-46.14-5.2,10.58,43.77c.92,3.95,3.68,14.51,5.15,18.26l13.23,33.75,6.53,14.47c4.82,10.69,15.22,24.03,23.98,34.11,2.05,2.69,4.39,5.19,7.01,7.48,24.9,21.79,65.65,15.96,90.99-13.02,25.35-28.97,25.71-70.13.81-91.91Zm-90.46,12.41l2.81,2.46.11.1-.11-.09-2.82-2.46h.01Z"/>
      <polygon class="cls-3" points="457.82 439.38 457.71 439.29 454.89 436.83 454.9 436.82 457.71 439.28 457.82 439.38"/>
      <polygon class="cls-3" points="457.71 439.28 457.71 439.29 454.89 436.83 454.9 436.82 457.71 439.28"/>
      <polygon class="cls-3" points="457.71 439.28 457.71 439.29 454.89 436.83 454.9 436.82 457.71 439.28"/>
    </g>
    <g>
      <polygon class="cls-3" points="338.26 489.09 338.26 489.24 338.25 489.25 338.25 489.1 338.26 489.09"/>
      <path class="cls-3" d="m406.08,534.65s-.01-.03-.01-.05c-1.79-13.23-4.86-29.75-9.53-40.19l-6.45-14.44-16.32-32.18c-1.82-3.57-6.75-11.09-9.06-14.38l-26.46-38.15-25.97,36.78c-2.37,3.29-8.5,12.33-10.35,15.9l-16.69,32.18-6.59,14.44c-4.87,10.65-8.05,27.22-9.88,40.45-.67,3.33-1.02,6.76-1.02,10.25,0,33.09,31.21,59.92,69.71,59.92s69.71-26.83,69.71-59.92c0-3.62-.37-7.17-1.09-10.61Zm-67.83-45.55h.01s0,.14,0,.14h-.01s0-.14,0-.14Z"/>
    </g>
    <g>
      <path class="cls-3" d="m137.44,415.48c-2.09,1.36-4.05,2.67-5.85,3.9,1.88-1.46,3.83-2.75,5.85-3.9Z"/>
      <path class="cls-3" d="m288.87,376.64l-11.6,44.95c-.98,3.9-3.45,12.54-4.97,16.25l-13.7,33.38-6.72,14.32c-4.85,10.33-15.3,23.4-24.12,33.39-2.16,2.85-4.64,5.49-7.43,7.9-25.05,21.62-65.75,15.51-90.91-13.64-25.15-29.14-25.23-70.3-.17-91.92.7-.6,1.41-1.18,2.13-1.74.07-.06.14-.11.21-.15,1.8-1.23,3.76-2.54,5.85-3.9,11.24-7.29,25.98-15.8,37.3-19.09l15.24-4.44,35.27-8.39c3.92-.93,14.76-2.19,18.8-2.55l44.81-4.37h.01Z"/>
      <polygon class="cls-3" points="288.87 376.63 288.87 376.64 288.86 376.64 288.87 376.63"/>
      <path class="cls-3" d="m131.59,419.38c-.07.04-.14.09-.21.15l.08-.07s.08-.06.13-.08Z"/>
    </g>
    <g>
      <path class="cls-3" d="m114.84,253.5c2.43.13,4.83.43,7.17.9-2.54-.35-4.95-.65-7.17-.9Z"/>
      <polygon class="cls-3" points="168.15 323.92 168 323.92 167.99 323.91 168.14 323.91 168.15 323.92"/>
      <path class="cls-3" d="m225.2,297.94c-3.29-2.37-12.33-8.5-15.9-10.35l-32.18-16.69-14.44-6.59c-10.71-4.89-27.41-8.09-40.67-9.91-2.54-.35-4.95-.65-7.17-.9-.95-.05-1.9-.08-2.86-.08-33.09,0-59.92,31.21-59.92,69.71s26.83,69.71,59.92,69.71c3.67,0,7.26-.38,10.75-1.12,13.22-1.8,29.68-4.86,40.1-9.52l14.44-6.45,32.18-16.32c3.57-1.82,11.09-6.75,14.38-9.06l38.15-26.46-36.78-25.97Zm-57.05,25.98h-.16s.15-.01.15-.01h.01Z"/>
    </g>
    <g>
      <path class="cls-3" d="m284.46,267.14h-.01l-45.74-7.98c-3.97-.67-12.78-2.44-16.59-3.66l-34.36-11-14.81-5.56c-10.63-3.99-24.41-13.3-35.05-21.29-.01,0-.02-.01-.02-.01-3.05-1.95-5.93-4.24-8.58-6.86-23.55-23.26-20.7-64.32,6.36-91.7,27.05-27.39,68.07-30.74,91.62-7.49.67.66,1.32,1.34,1.94,2.02l.03.03s.02.03.03.04c1.4,1.74,2.91,3.64,4.46,5.67,8.16,10.61,17.77,24.6,21.95,35.59l5.64,14.84,11.17,34.49c1.24,3.83,3.36,14.54,4.04,18.54l7.92,44.33Z"/>
      <path class="cls-3" d="m233.74,119.35c-1.55-2.03-3.06-3.93-4.46-5.67,1.64,1.8,3.12,3.7,4.46,5.67Z"/>
    </g>
  </g>
  <g class="cls-2">
    <text class="cls-1" transform="translate(702.89 386.41)"><tspan x="0" y="0">SDG Catalysts</tspan></text>
  </g>
</svg>